<svg width="25" height="25" viewBox="0 0 25 25" fill="none" xmlns="http://www.w3.org/2000/svg">
<path d="M19.1964 1.78613C20.3032 1.78613 21.2495 2.17908 22.0354 2.96498C22.8213 3.75088 23.2143 4.69722 23.2143 5.80399V19.1968C23.2143 20.3036 22.8213 21.25 22.0354 22.0359C21.2495 22.8218 20.3032 23.2147 19.1964 23.2147H16.5737V14.9139H19.3499L19.7684 11.6773H16.5737V9.61258C16.5737 9.09175 16.6829 8.70113 16.9015 8.44071C17.1201 8.18029 17.5456 8.05008 18.178 8.05008L19.88 8.03613V5.1483C19.2941 5.06459 18.4663 5.02274 17.3968 5.02274C16.1319 5.02274 15.1204 5.39476 14.3624 6.13881C13.6044 6.88286 13.2254 7.93383 13.2254 9.29171V11.6773H10.4353V14.9139H13.2254V23.2147H5.80356C4.69679 23.2147 3.75046 22.8218 2.96456 22.0359C2.17866 21.25 1.78571 20.3036 1.78571 19.1968V5.80399C1.78571 4.69722 2.17866 3.75088 2.96456 2.96498C3.75046 2.17908 4.69679 1.78613 5.80356 1.78613H19.1964Z" fill="white"/>
</svg>
